<svg width="24" height="24" viewBox="0 0 24 24" fill="none" xmlns="http://www.w3.org/2000/svg">
<g clip-path="url(#clip0_11_93)">
<path d="M20.48 3.512C19.3667 2.39623 18.0439 1.51142 16.5876 0.908375C15.1313 0.305335 13.5703 -0.00404852 11.994 -0.00200409C5.36604 -0.00200409 -0.00695801 5.371 -0.00695801 11.999C-0.00695801 15.313 1.33704 18.314 3.50904 20.486C4.62237 21.6018 5.94517 22.4866 7.40146 23.0896C8.85775 23.6927 10.4188 24.002 11.995 24C18.623 24 23.996 18.627 23.996 11.999C23.996 8.685 22.652 5.684 20.48 3.512V3.512ZM18.938 18.939C18.0273 19.8521 16.945 20.5762 15.7535 21.0698C14.562 21.5634 13.2847 21.8166 11.995 21.815C6.57204 21.815 2.17604 17.419 2.17604 11.996C2.17443 10.7063 2.42767 9.42902 2.92123 8.23751C3.41479 7.04601 4.13893 5.96377 5.05204 5.053C5.9626 4.13987 7.04465 3.41571 8.236 2.92215C9.42735 2.42858 10.7045 2.17535 11.994 2.177C17.416 2.177 21.812 6.573 21.812 11.995C21.8137 13.2845 21.5605 14.5617 21.067 15.7531C20.5734 16.9444 19.8492 18.0265 18.936 18.937L18.938 18.939Z" fill="black"/>
<path d="M13.5371 12L17.3921 8.14501C17.5822 7.93774 17.685 7.66503 17.6789 7.38381C17.6728 7.10258 17.5583 6.83459 17.3593 6.63575C17.1604 6.43692 16.8923 6.32261 16.6111 6.3167C16.3298 6.31078 16.0572 6.41371 15.8501 6.60401L15.8511 6.60301L11.9961 10.458L8.14105 6.60301C7.93378 6.41285 7.66107 6.31009 7.37985 6.31619C7.09863 6.32229 6.83063 6.43677 6.6318 6.63573C6.43296 6.83469 6.31866 7.10277 6.31274 7.38399C6.30683 7.66522 6.40976 7.93786 6.60005 8.14501L6.59905 8.14401L10.4541 11.999L6.59905 15.854C6.49059 15.9535 6.40339 16.0739 6.34269 16.208C6.28199 16.3421 6.24905 16.4871 6.24586 16.6343C6.24267 16.7814 6.26929 16.9277 6.32412 17.0643C6.37895 17.2009 6.46085 17.325 6.5649 17.4291C6.66895 17.5333 6.79299 17.6152 6.92956 17.6702C7.06612 17.7251 7.21239 17.7518 7.35955 17.7487C7.50671 17.7456 7.65172 17.7128 7.78586 17.6521C7.91999 17.5915 8.04048 17.5044 8.14005 17.396L8.14105 17.395L11.9961 13.54L15.8511 17.395C15.9506 17.5035 16.071 17.5907 16.2051 17.6514C16.3392 17.7121 16.4842 17.745 16.6313 17.7482C16.7785 17.7514 16.9248 17.7248 17.0614 17.6699C17.198 17.6151 17.3221 17.5332 17.4262 17.4292C17.5303 17.3251 17.6123 17.2011 17.6672 17.0645C17.7221 16.9279 17.7488 16.7817 17.7457 16.6345C17.7426 16.4874 17.7098 16.3423 17.6492 16.2082C17.5886 16.0741 17.5015 15.9536 17.3931 15.854L17.3921 15.853L13.5371 12Z" fill="black"/>
</g>
<defs>
<clipPath id="clip0_11_93">
<rect width="24" height="24" fill="white"/>
</clipPath>
</defs>
</svg>
