<svg width="20" height="20" viewBox="0 0 20 20" fill="none" xmlns="http://www.w3.org/2000/svg">
<path d="M4.81841 0.183609C4.76035 0.125408 4.69138 0.0792312 4.61546 0.0477245C4.53953 0.0162178 4.45813 0 4.37593 0C4.29372 0 4.21232 0.0162178 4.13639 0.0477245C4.06047 0.0792312 3.9915 0.125408 3.93344 0.183609L0.183609 3.93344C0.125408 3.9915 0.0792324 4.06047 0.0477257 4.13639C0.016219 4.21232 0 4.29372 0 4.37593C0 4.45813 0.016219 4.53953 0.0477257 4.61546C0.0792324 4.69139 0.125408 4.76035 0.183609 4.81841L12.6831 17.3179C12.743 17.3774 12.8145 17.4242 12.8931 17.4554L19.1428 19.9552C19.2564 20.0007 19.3808 20.0118 19.5006 19.9873C19.6205 19.9627 19.7304 19.9035 19.8169 19.8169C19.9035 19.7304 19.9627 19.6205 19.9873 19.5006C20.0118 19.3808 20.0007 19.2564 19.9552 19.1428L17.4554 12.8931C17.4242 12.8145 17.3774 12.743 17.3179 12.6831L4.81841 0.183609V0.183609ZM5.99211 3.12598L3.12598 5.99211L1.5098 4.37593L4.37593 1.5098L5.99211 3.12598ZM4.00969 6.87582L6.87582 4.00969L15.0005 12.1343V12.5006H14.3755C14.2097 12.5006 14.0508 12.5664 13.9336 12.6836C13.8164 12.8008 13.7505 12.9598 13.7505 13.1255V13.7505H13.1255C12.9598 13.7505 12.8008 13.8164 12.6836 13.9336C12.5664 14.0508 12.5006 14.2097 12.5006 14.3755V15.0005H12.1343L4.00969 6.87582V6.87582ZM16.2104 13.3443L16.3429 13.4768L18.2528 18.2528L13.4768 16.3429L13.3443 16.2104C13.4635 16.1659 13.5663 16.086 13.6389 15.9814C13.7115 15.8769 13.7504 15.7527 13.7505 15.6254V15.0005H14.3755C14.5412 15.0005 14.7002 14.9346 14.8174 14.8174C14.9346 14.7002 15.0005 14.5412 15.0005 14.3755V13.7505H15.6254C15.7527 13.7504 15.8769 13.7115 15.9814 13.6389C16.086 13.5663 16.1659 13.4635 16.2104 13.3443V13.3443Z" fill="#202020"/>
</svg>
